<?xml version="1.0" encoding="utf-8"?>
<svg xmlns="http://www.w3.org/2000/svg" width="360" height="428" viewBox="0 0 360 428" version="1.1">
  <path d="M 212.020 6.076 C 208.562 7.644, 187.139 28.586, 118.184 97.804 C 69.038 147.137, 26.651 190.334, 23.990 193.798 C 17.765 201.903, 10.898 215.298, 7.637 225.697 C 0.531 248.356, 2.801 278.737, 13.137 299.297 C 20.833 314.606, 24.247 318.526, 67.361 361.570 C 106.741 400.885, 109.812 403.717, 114.264 404.820 C 124.548 407.367, 132.106 405.779, 138.756 399.674 C 144.632 394.279, 146.950 389.139, 146.978 381.446 C 147.017 370.586, 145.891 369.158, 103.180 325.918 C 81.906 304.381, 63.335 284.901, 61.910 282.630 C 52.072 266.941, 51.596 246.454, 60.689 230.031 C 64.709 222.770, 102.027 184.468, 194.686 92.500 C 239.195 48.323, 244.249 42.982, 246.027 38.239 C 252.457 21.091, 240.728 4.044, 222.500 4.044 C 218.605 4.044, 214.928 4.757, 212.020 6.076" stroke="none" fill="#040404" fill-rule="evenodd"/>
  <path d="M 170.881 115.818 C 155.802 131.043, 142.572 144.596, 141.482 145.935 C 139.531 148.331, 139.555 148.328, 143.042 145.725 C 155.107 136.716, 173.040 133.853, 188.344 138.493 C 198.470 141.562, 203.654 145.709, 228.867 170.907 C 242.426 184.457, 255.090 196.283, 257.010 197.186 C 274.043 205.197, 293.250 193.100, 293.250 174.361 C 293.250 164.037, 291.845 162.174, 261.247 131.927 C 230.511 101.546, 225.754 97.949, 207.840 91.546 L 198.297 88.135 170.881 115.818 M 153.500 230.922 C 145.388 232.932, 137.172 240.743, 134.996 248.516 C 131.303 261.704, 139.166 276.363, 151.911 280.056 C 154.314 280.752, 185.914 280.997, 247.500 280.798 C 350.338 280.465, 342.643 281.023, 350.333 273.333 C 355.709 267.958, 357.456 263.579, 357.448 255.500 C 357.437 245.232, 352.585 237.461, 343 232.362 C 339.667 230.589, 335.147 230.492, 248 230.340 C 197.675 230.251, 155.150 230.514, 153.500 230.922 M 260.942 311.948 C 255.541 313.587, 252.768 315.992, 228 340.509 C 201.082 367.155, 197.318 370.026, 185.500 372.929 C 179.116 374.496, 166.940 374.505, 160.500 372.946 C 154.125 371.404, 146.606 367.750, 141.500 363.713 L 137.500 360.550 140.405 364.025 C 147.029 371.950, 148.951 383.132, 145.129 391.500 C 142.614 397.007, 135.162 403.610, 129.848 405.041 C 125.673 406.165, 118.208 405.915, 113 404.476 C 108.402 403.205, 120.046 411.030, 129.500 415.563 C 145.358 423.168, 151.763 424.499, 172.500 424.499 C 193.052 424.500, 200.855 422.972, 215.619 416.056 C 229.458 409.573, 235.646 404.541, 262.297 378.097 C 291.041 349.575, 293.200 346.651, 293.200 336.243 C 293.200 329.331, 291.465 324.738, 286.882 319.519 C 280.745 312.529, 269.675 309.298, 260.942 311.948" stroke="none" fill-rule="evenodd" style="fill: rgb(255, 194, 0);"/>
</svg>